<?xml version="1.0" encoding="UTF-8"?>
<svg width="200px" height="59px" viewBox="0 0 200 59" version="1.1" xmlns="http://www.w3.org/2000/svg" xmlns:xlink="http://www.w3.org/1999/xlink">
    <title>Slice 1</title>
    <g id="页面-1" stroke="none" stroke-width="1" fill="none" fill-rule="evenodd">
        <g id="Wallet-Alipay" transform="translate(0.079997, 0.356882)" fill-rule="nonzero">
            <g id="编组" transform="translate(-0.000000, 0.000000)" fill="#1677FF">
                <path d="M17.0651315,49.2518891 C5.27714791,49.2328147 1.29103036,38.9413049 6.88373318,32.1785607 C8.10276123,30.7046292 10.175369,29.2987587 13.38984,28.5136735 C18.4168133,27.2911774 26.4133249,29.3035274 33.9056653,31.7818997 C35.2573472,29.3069954 36.3966095,26.5815228 37.2467211,23.6791783 L14.1432791,23.6418965 L14.1471807,21.3074492 L26.0595814,21.3265236 L26.066084,17.1440263 L11.6384627,17.1206169 L11.6419307,14.786603 L26.0699856,14.8095791 L26.0795228,8.8423242 C26.0795228,8.8423242 26.0812569,7.83744977 27.1026046,7.83875031 L32.9250674,7.8482875 L32.9137962,14.8208503 L47.1788515,14.8438263 L47.1749499,17.1782736 L32.9098946,17.1552976 L32.9029584,21.3373613 L44.5478837,21.3564358 C43.4263954,25.9061154 41.7261721,30.0925142 39.5976418,33.7673721 C43.1285748,35.0475249 46.2992613,36.2600503 48.6614533,37.0529387 C56.4607182,39.6717682 58.7652532,40.0224769 59.0938535,40.0627933 L59.0938535,40.0402508 L59.1428798,9.51816513 C59.1515101,4.30391586 54.925662,0.0732990926 49.6979737,0.0650624168 L9.54374597,-7.22778525e-16 C4.31432386,-0.00820064638 0.0728693642,4.20897736 0.0646326885,9.4227931 L-5.5929987e-16,49.4586731 C-0.00863037477,54.6690207 4.21938537,58.9013715 9.44880743,58.9100416 L49.6030354,58.9746705 C54.8307233,58.9828711 59.0700105,54.7643926 59.078247,49.554045 L59.0791139,49.167788 C58.520754,48.9345604 43.5776901,42.6855246 35.9687359,39.0223713 C30.7544866,45.3988589 24.0342262,49.2631603 17.0651315,49.2518891 Z" id="Fill-1"></path>
                <path d="M14.3879517,32.0086251 C12.9118527,32.1525501 10.1399946,32.800213 8.62227871,34.1323869 C4.07346612,38.073853 6.77943088,45.2974175 15.970694,45.3121898 C21.312395,45.3208273 26.6571306,41.9234151 30.8591357,36.4772384 C24.898817,33.5644898 19.8488678,31.4797438 14.3879517,32.0086251" id="Fill-4"></path>
            </g>
            <path d="M168.500126,14.7254425 L191.030274,14.7254425 L191.030274,19.1854719 L199.073661,19.1854719 L199.073661,14.7254425 L199.073661,13.9021037 C199.073661,13.8887703 199.073661,13.8821036 199.073661,13.8687702 C199.073661,12.6820957 198.143654,11.7220894 196.990313,11.7020892 L183.966894,11.7020892 L183.966894,7.54206175 L175.546838,7.54206175 L175.546838,11.7020892 L160.456739,11.7020892 L160.456739,13.2120992 L160.456739,14.7254425 L160.456739,19.1854719 L168.500126,19.1854719 L168.500126,14.7254425 Z" id="Fill-6" fill="#3E3A39"></path>
            <polygon id="Fill-8" fill="#3E3A39" points="119.758137 7.92739764 111.508083 27.4375264 117.838124 27.4375264 117.838124 50.6543462 124.75817 50.6543462 124.75817 19.8574764 122.251487 19.8574764 127.461521 7.92739764"></polygon>
            <path d="M200,49.5896727 L197.473317,41.0496161 C197.303315,40.5062794 196.809979,40.10961 196.223309,40.10961 L189.526598,40.10961 L191.466611,46.6696532 L183.589892,46.6696532 L183.589892,33.9662362 L199.056661,33.9662362 L199.056661,30.9395495 L183.589892,30.9395495 L183.589892,24.9628434 L199.056661,24.9628434 L199.056661,21.9361568 L183.589892,21.9361568 L175.923174,21.9361568 L160.456406,21.9361568 L160.456406,24.9628434 L175.923174,24.9628434 L175.923174,30.9395495 L160.456406,30.9395495 L160.456406,33.9662362 L175.923174,33.9662362 L175.923174,46.6696532 L160.456406,46.6696532 L160.456406,49.6930068 L200,49.6930068 L199.966666,49.5896727 L200,49.5896727 Z" id="Fill-10" fill="#3E3A39"></path>
            <path d="M137.455587,23.9208365 C137.192252,23.3841663 136.655582,23.0141639 136.032245,23.0108305 L130.042205,23.0108305 L134.708902,37.7075942 L141.795616,37.7075942 L137.455587,23.9208365 Z" id="Fill-12" fill="#3E3A39"></path>
            <path d="M152.620354,8.28206664 L145.430306,8.28206664 L145.430306,15.7954495 L127.703523,15.7954495 L127.703523,18.8221362 L145.430306,18.8221362 L145.430306,45.8389812 C145.366973,46.455652 144.880303,46.9356551 144.270299,46.9689888 L140.613608,46.9689888 L140.613608,50.1023428 L149.93367,50.1023428 C151.410346,50.0390091 152.58702,48.8156677 152.620354,47.2956574 L152.620354,46.9689888 L152.620354,18.8221362 L155.540373,18.8221362 L155.540373,15.7954495 L152.620354,15.7954495 L152.620354,8.28206664 Z" id="Fill-14" fill="#3E3A39"></path>
            <path d="M107.746058,21.9724903 L93.9292998,21.9724903 L93.9292998,17.0224576 L109.949406,17.0224576 L109.949406,13.939104 L93.9292998,13.939104 L93.9292998,7.66572925 L86.7892529,7.66572925 L86.7892529,7.66572925 C86.0059142,7.66572925 85.3725766,8.32240024 85.3725766,9.13240558 L85.3725766,9.13240558 L85.3725766,13.939104 L69.4658049,13.939104 L69.4658049,17.0224576 L85.3725766,17.0224576 L85.3725766,21.9724903 L71.9491547,21.9724903 L71.9491547,25.0525107 L98.6893312,25.0525107 C98.6893312,25.0525107 97.2093216,30.8392155 89.8726064,37.0592566 C83.3025629,32.0825571 81.1058821,28.1191976 81.1058821,28.1191976 L73.9325014,28.1191976 C76.8325205,33.1492308 80.9558809,37.1792574 85.3959104,40.3726119 C81.3192166,43.0259624 76.0291818,45.5826463 69.1891367,47.625993 L69.1891367,51.3193508 C69.1891367,51.3193508 79.7392063,49.3260041 89.9426068,43.3159644 C100.156008,49.2793374 110.416075,51.3193508 110.416075,51.3193508 L110.416075,47.8226608 C103.849366,45.4326452 98.6493312,42.802628 94.5626374,40.2692778 C100.482676,35.8825822 105.666044,29.9325429 107.746058,21.9724903" id="Fill-16" fill="#3E3A39"></path>
        </g>
    </g>
</svg>