<svg width="60" height="40" viewBox="0 0 60 40" xmlns="http://www.w3.org/2000/svg"><g fill="none" fill-rule="evenodd"><path d="M0 0h60v40H0z"/><path d="m6.594 17.453 1.895 3.826H4.62l1.973-3.826ZM9.5 23.43h2.317L7.49 14.575h-.634a.591.591 0 0 0-.288.079.525.525 0 0 0-.202.215L2 23.429h1.546l.781-1.446h4.45l.724 1.446Zm5.294 0h-2.092v-8.473a.369.369 0 0 1 .112-.272.424.424 0 0 1 .287-.11h1.693v8.854" fill="#373530"/><path d="M16.64 17.278c0-.1.042-.197.118-.267a.42.42 0 0 1 .286-.111h1.71v6.53H16.64v-6.152" fill="#35322C"/><path d="M22.636 21.61a1.083 1.083 0 0 0 .36.813c.121.106.263.19.416.244.172.06.354.09.537.089a.875.875 0 0 0 .511-.173c.173-.126.316-.287.42-.47.128-.227.224-.47.284-.722.073-.299.109-.605.107-.913a5.814 5.814 0 0 0-.093-1.11 2.978 2.978 0 0 0-.264-.802 1.327 1.327 0 0 0-.402-.476.893.893 0 0 0-.513-.16 1.197 1.197 0 0 0-.39.062 1.578 1.578 0 0 0-.358.174c-.119.076-.23.162-.33.259a3.465 3.465 0 0 0-.285.314v2.871Zm-2.122-4.328c0-.102.044-.2.12-.271a.427.427 0 0 1 .288-.111h1.714v.51c.256-.192.539-.347.84-.462.352-.13.726-.191 1.102-.183a2.862 2.862 0 0 1 2.152.913c.263.286.467.618.6.977.139.382.206.784.198 1.188a4.273 4.273 0 0 1-.244 1.478 3.3 3.3 0 0 1-1.847 1.946 3.792 3.792 0 0 1-1.484.279c-.279 0-.52-.01-.722-.03a2.364 2.364 0 0 1-.59-.145V26h-2.127v-8.718Zm9.471 3.985c0-.758.658-1.336 1.464-1.393.511-.035.819.05.999.157v2.24a1.51 1.51 0 0 1-1 .37 1.48 1.48 0 0 1-1.029-.395 1.36 1.36 0 0 1-.434-.979M33 16.974c-1.013-.272-2.294-.323-4.044.105.058.164.134.456.189.625 2.769-.463 3.302-.103 3.302 1.023v.35c-.504-.033-1.102-.113-1.589-.12-1.893-.028-2.582 1.387-2.582 2.281 0 1.563 1.584 3.013 4.17 1.943v.25h2.165V18.66c0-.925-.851-1.484-1.611-1.686m2.18-.199h2.24l2.202 4.032 1.827-3.77a.458.458 0 0 1 .428-.26h1.196l-3.52 7.267c-.845 1.98-2.894 1.699-3.272 1.699v-1.097c.282 0 1.219.01 1.638-.425.1-.125.184-.26.25-.405l.166-.33.245-.524-3.4-6.187" fill="#332D28"/><path d="M18.826 14.964c0 .533-.509.967-1.138.967-.629 0-1.139-.438-1.139-.967 0-.529.51-.964 1.14-.964.628 0 1.137.438 1.137.964M58 23.495h-1.55a.154.154 0 0 1-.124-.067l-1.803-2.98-.928 1.034v2.013h-1.26a.139.139 0 0 1-.141-.136v-6.427c0-.075.063-.136.141-.136h1.26v2.734a.07.07 0 0 0 .072.069c.02 0 .04-.009.053-.025l2.362-2.723a.146.146 0 0 1 .11-.048h1.637l-2.379 2.662 2.55 4.03Zm-7.494 0h-1.278a.139.139 0 0 1-.141-.136v-2.527a.139.139 0 0 0-.142-.136h-2.317v2.799h-1.28a.139.139 0 0 1-.14-.136v-6.427c0-.036.015-.07.041-.096a.143.143 0 0 1 .1-.04h1.28v2.743h2.319a.14.14 0 0 0 .142-.134v-2.466c0-.075.063-.136.141-.136h1.278l-.003 6.692Z" fill="#00A0E9"/></g></svg>