<svg width="60" height="40" viewBox="0 0 60 40" xmlns="http://www.w3.org/2000/svg"><g fill="none" fill-rule="evenodd"><path d="M0 0h60v40H0z"/><path d="M15.692 21.003c-.383-.746-1.045-1.213-1.97-1.4-.074-.018-.149-.018-.223-.028l-.103-.009a1.915 1.915 0 0 0-.29-.019H11.53v-1.493c0-.196-.009-.299-.018-.373l-.01-.103c-.009-.075-.018-.159-.028-.224-.186-.924-.653-1.596-1.4-1.97a2.77 2.77 0 0 0-1.101-.298h-.084c-.15 0-.252.01-.383.028-2.445.327-2.417 2.679-2.408 2.772v4.35c0 .877.243 1.567.71 2.053.485.466 1.176.7 2.044.7h4.377c.243 0 2.436-.066 2.753-2.408.019-.15.028-.271.028-.467-.009-.01-.018-.532-.317-1.11m1.512 3.649c-.765 1.428-2.324 1.941-2.781 2.062-.271.075-.504.103-.943.131H8.235s-.355 0-.719-.093a6.216 6.216 0 0 1-.83-.28c-.309-.14-.663-.336-1.149-.822l-.074-.074c-.383-.392-.756-.943-.943-1.41a3.608 3.608 0 0 1-.196-.644c-.084-.345-.084-.718-.084-.746v-5.171a4.85 4.85 0 0 1 .13-.952c.122-.457.626-2.016 2.063-2.781.812-.458 1.643-.691 2.474-.691 1.278 0 2.118.56 2.146.588a4.69 4.69 0 0 1 2.324 3.93c.327-.01 2.567.055 3.939 2.342.01 0 1.363 1.988-.112 4.61m-.243-13.449H4.641A2.645 2.645 0 0 0 2 13.845v12.31a2.645 2.645 0 0 0 2.641 2.642h12.311a2.645 2.645 0 0 0 2.641-2.642V13.854a2.633 2.633 0 0 0-2.632-2.65m38.958 4.283h-.57v1.484h-.345v-1.484h-.57v-.308h1.485v.308zM52.12 27.09c-.29 0-.57-.038-.83-.122a1.85 1.85 0 0 1-.682-.364 1.691 1.691 0 0 1-.476-.625c-.112-.252-.168-.57-.168-.933v-5.451h-1.176v-1.512h1.176v-2.884h1.932v2.884h1.913v1.512h-1.913v4.863c0 .298.084.513.252.644.168.13.383.205.625.205.252 0 .495-.047.728-.13.234-.085.411-.16.514-.215l.046-.019.43 1.54-.038.019a10.73 10.73 0 0 1-.989.382 4.41 4.41 0 0 1-1.344.206m5.535-10.118v-1.185l-.467.877h-.187l-.457-.877v1.185h-.345V15.18h.373l.523 1.018.532-1.018H58v1.792h-.345zm-32.527 2.632a2.18 2.18 0 0 0-.999.234 2.704 2.704 0 0 0-.821.625 3.106 3.106 0 0 0-.765 2.081c0 .42.065.812.196 1.158.13.354.317.662.541.914.233.262.504.467.821.607.308.15.654.224 1.018.224s.7-.075 1.017-.224a2.64 2.64 0 0 0 .821-.616c.234-.261.411-.579.542-.924.13-.355.196-.747.196-1.157 0-.411-.066-.794-.196-1.148a3.064 3.064 0 0 0-.542-.934 2.41 2.41 0 0 0-.821-.616 2.309 2.309 0 0 0-1.008-.224m0 7.514c-.7 0-1.335-.122-1.885-.374a4.369 4.369 0 0 1-1.428-.998 4.47 4.47 0 0 1-.915-1.466 4.869 4.869 0 0 1-.317-1.754c0-.607.102-1.195.317-1.755.215-.56.523-1.055.924-1.465.401-.42.887-.756 1.437-.999a4.673 4.673 0 0 1 1.876-.373c.682 0 1.316.13 1.876.373a4.41 4.41 0 0 1 1.438.999c.401.42.709.905.924 1.465a4.877 4.877 0 0 1 0 3.51 4.255 4.255 0 0 1-.924 1.465 4.46 4.46 0 0 1-1.438.998 4.625 4.625 0 0 1-1.885.374m10.061-7.514c-.354 0-.681.075-.998.234a2.704 2.704 0 0 0-.822.625 3.106 3.106 0 0 0-.765 2.081c0 .42.065.812.196 1.158.13.354.317.662.541.914.234.262.504.467.822.607.308.15.653.224 1.017.224.364 0 .7-.075 1.017-.224a2.64 2.64 0 0 0 .822-.616c.233-.261.42-.579.55-.924.131-.355.196-.747.196-1.157 0-.411-.065-.794-.196-1.148a2.906 2.906 0 0 0-.55-.934 2.41 2.41 0 0 0-.822-.616 2.28 2.28 0 0 0-1.008-.224m0 7.514c-.7 0-1.334-.122-1.885-.374a4.369 4.369 0 0 1-1.428-.998 4.47 4.47 0 0 1-.915-1.466 4.869 4.869 0 0 1-.317-1.754c0-.607.103-1.195.317-1.755.215-.56.523-1.055.924-1.465.402-.42.887-.756 1.438-.999a4.673 4.673 0 0 1 1.876-.373c.681 0 1.316.13 1.876.373a4.41 4.41 0 0 1 1.437.999c.401.42.71.905.924 1.465a4.877 4.877 0 0 1 0 3.51 4.255 4.255 0 0 1-.924 1.465c-.401.42-.887.756-1.437.998a4.63 4.63 0 0 1-1.886.374m9.278 0a7.26 7.26 0 0 1-1.092-.084 8.634 8.634 0 0 1-1.083-.243 6.369 6.369 0 0 1-1.017-.392 5.096 5.096 0 0 1-.859-.513l-.028-.028.812-1.307.037.028c1.064.737 2.128 1.12 3.183 1.12.55 0 .99-.103 1.307-.308a.969.969 0 0 0 .466-.868c0-.355-.168-.607-.522-.775-.364-.168-.943-.354-1.727-.541-.55-.13-1.027-.27-1.419-.41a4.089 4.089 0 0 1-.97-.477 1.61 1.61 0 0 1-.551-.634 2.102 2.102 0 0 1-.168-.878c0-.448.093-.858.27-1.213a2.64 2.64 0 0 1 .738-.896c.308-.243.681-.43 1.101-.55.42-.122.878-.187 1.363-.187.635 0 1.27.102 1.857.308a5.686 5.686 0 0 1 1.606.83l.037.028-.84 1.195-.037-.028c-.831-.616-1.727-.933-2.66-.933-.458 0-.85.093-1.167.289-.317.187-.467.485-.467.896a.86.86 0 0 0 .094.43.862.862 0 0 0 .308.298c.149.084.345.168.588.243.242.074.55.149.905.242.597.15 1.13.29 1.568.439.439.15.803.317 1.092.513.29.196.504.439.644.71.14.27.205.588.205.97 0 .42-.084.803-.252 1.139-.168.336-.41.635-.728.868-.308.233-.69.42-1.138.55-.42.103-.915.169-1.456.169" fill="#F03D3D" fill-rule="nonzero"/></g></svg>