<svg width="32" height="32" viewBox="0 0 32 32" fill="none" xmlns="http://www.w3.org/2000/svg">
<path d="M8.66667 18H18V16.6667H8.66667V18ZM8.66667 14H23.3333V12.6667H8.66667V14ZM8.66667 10H23.3333V8.66667H8.66667V10ZM4 26.7693V6.15467C4 5.54044 4.20578 5.028 4.61733 4.61733C5.02889 4.20667 5.54089 4.00089 6.15333 4H25.8467C26.46 4 26.972 4.20578 27.3827 4.61733C27.7933 5.02889 27.9991 5.54133 28 6.15467V20.5133C28 21.1267 27.7942 21.6391 27.3827 22.0507C26.9711 22.4622 26.4591 22.6676 25.8467 22.6667H8.10267L4 26.7693ZM7.53333 21.3333H25.8467C26.0511 21.3333 26.2391 21.248 26.4107 21.0773C26.5822 20.9067 26.6676 20.7187 26.6667 20.5133V6.15333C26.6667 5.94889 26.5813 5.76089 26.4107 5.58933C26.24 5.41778 26.052 5.33244 25.8467 5.33333H6.15333C5.94889 5.33333 5.76089 5.41867 5.58933 5.58933C5.41778 5.76 5.33244 5.948 5.33333 6.15333V23.5267L7.53333 21.3333Z" fill="black"/>
</svg>
