<svg width="60" height="40" viewBox="0 0 60 40" xmlns="http://www.w3.org/2000/svg"><g fill="none" fill-rule="evenodd"><path d="M0 0h60v40H0z"/><path d="M43.317 20.842c0 1.305-.892 1.988-1.773 1.988-1.152 0-1.774-1.036-1.774-2.01 0-.97.61-1.953 1.774-1.953.88 0 1.773.678 1.773 1.975m1.188-3.197h-.872a.316.316 0 0 0-.316.315v.907c-.086-.567-.808-1.323-2.043-1.323-1.755 0-3.029 1.378-3.029 3.276 0 1.9 1.292 3.332 3.007 3.332 1.068 0 1.731-.619 2.065-.968v.552c0 .173.141.315.316.315h.872a.315.315 0 0 0 .315-.315V17.96a.315.315 0 0 0-.315-.315m4.244 2.597c-.7-.194-1.305-.362-1.305-.816 0-.377.342-.593.94-.593.554 0 .93.244 1.032.67.034.141.16.241.305.241h.87a.315.315 0 0 0 .313-.364c-.179-1.15-1.103-1.836-2.475-1.836-1.442 0-2.488.796-2.488 1.893 0 1.393 1.271 1.732 2.292 2.007.701.187 1.306.349 1.306.782 0 .393-.395.637-1.03.637-.546 0-.992-.276-1.107-.687a.317.317 0 0 0-.305-.235h-.917a.316.316 0 0 0-.31.368c.199 1.085 1.293 1.843 2.661 1.843 1.459 0 2.477-.797 2.477-1.941-.04-1.356-1.271-1.696-2.26-1.97m6.684-2.591c-.715 0-1.364.239-1.818.661v-2.477a.315.315 0 0 0-.315-.314h-.862a.315.315 0 0 0-.314.314v7.902c0 .173.14.315.314.315h.862a.316.316 0 0 0 .315-.315v-3.147c0-1.028.532-1.722 1.458-1.722.92 0 1.448.694 1.448 1.722v3.147c0 .173.14.315.314.315h.851a.315.315 0 0 0 .315-.315v-3.339c0-1.668-1.008-2.747-2.568-2.747m-18.067 4.312-.739-.421a.317.317 0 0 0-.156-.041.308.308 0 0 0-.263.143 2.13 2.13 0 0 1-.763.709c-.381.215-.81.324-1.278.324-.794 0-1.447-.254-1.937-.755-.49-.502-.74-1.148-.74-1.921 0-.774.25-1.42.74-1.922.491-.501 1.143-.755 1.937-.755.467 0 .895.108 1.272.324a2.2 2.2 0 0 1 .767.712.318.318 0 0 0 .42.098l.74-.43a.313.313 0 0 0 .106-.445 3.746 3.746 0 0 0-1.31-1.198 4.04 4.04 0 0 0-1.995-.512c-1.19 0-2.192.4-2.978 1.189-.785.788-1.183 1.777-1.183 2.939 0 1.16.398 2.15 1.183 2.938.786.789 1.787 1.19 2.978 1.19.724 0 1.4-.175 2.008-.519.54-.305.976-.71 1.3-1.202a.31.31 0 0 0 .042-.245.32.32 0 0 0-.151-.2m-11.922-2.615a.393.393 0 0 0-.392.393v.566c0 .217.176.393.392.393h2.225c-.255 1.506-1.836 2.015-2.524 2.015-.8 0-1.474-.268-2.004-.794-.505-.501-.762-1.145-.762-1.91 0-.765.255-1.412.757-1.92.502-.51 1.152-.767 1.931-.767.482 0 .923.11 1.313.325.31.172.562.39.75.648.07.098.189.155.317.155.07 0 .138-.017.196-.05l.593-.343a.388.388 0 0 0 .127-.564 3.794 3.794 0 0 0-1.26-1.11 4.138 4.138 0 0 0-2.036-.512c-1.176 0-2.175.404-2.971 1.2-.796.796-1.2 1.78-1.2 2.927 0 1.154.404 2.141 1.2 2.933.796.793 1.818 1.195 3.038 1.195 1.016 0 2.194-.496 2.931-1.233.647-.647.932-1.57 1.012-2.085l.003.001.013-.123c.016-.138.028-.505.035-.82a.506.506 0 0 0-.505-.52h-3.179Z" fill="#002CB9"/><path d="M16.035 20a7.45 7.45 0 0 1-.805 3.385.751.751 0 1 0 1.334.687 8.948 8.948 0 0 0 .975-4.073c0-1.463-.35-2.844-.97-4.065a.751.751 0 1 0-1.337.686 7.455 7.455 0 0 1 .803 3.38m-2.43 0c0 .741-.159 1.458-.46 2.113a.75.75 0 1 0 1.366.627 6.528 6.528 0 0 0 .597-2.74c0-.96-.205-1.888-.593-2.734a.752.752 0 0 0-1.368.626c.3.652.458 1.368.458 2.107" fill="#6FBBF8"/><path d="M8.554 25.05a5.018 5.018 0 0 1-3.571-1.48A5.014 5.014 0 0 1 3.503 20c0-1.35.525-2.618 1.48-3.572a5.018 5.018 0 0 1 3.57-1.48c1.458 0 2.495.593 3.086 1.05a.75.75 0 1 0 .918-1.185 6.522 6.522 0 0 0-4.003-1.368 6.51 6.51 0 0 0-4.634 1.92A6.509 6.509 0 0 0 2 20c0 1.74.689 3.403 1.919 4.634a6.514 6.514 0 0 0 4.635 1.92c1.473 0 2.87-.483 4.014-1.372a.74.74 0 0 0 .067-1.108l-.015-.016a.74.74 0 0 0-.977-.062 5.033 5.033 0 0 1-3.09 1.054" fill="#007CFF"/><path d="M12.482 19.464a.756.756 0 0 0-.534-.221h-.001l-2.631.003a.758.758 0 0 0 0 1.513h.004l1.76-.001a2.638 2.638 0 0 1-2.621 1.873 2.632 2.632 0 1 1 1.5-4.862.758.758 0 0 0 .81-1.279 4.17 4.17 0 0 0-3.11-.544A4.09 4.09 0 0 0 4.5 19.13a4.154 4.154 0 0 0 4.059 5.017A4.151 4.151 0 0 0 12.705 20a.755.755 0 0 0-.223-.536" fill="#002CB9"/></g></svg>