<svg xmlns="http://www.w3.org/2000/svg" width="60" height="40" viewBox="0 0 60 40"><g fill="none" fill-rule="evenodd"><path d="M0 0h60v40H0z"/><g fill-rule="nonzero"><path fill="#08BF5B" d="M57.56 26.34H2.44c-.24 0-.44-.2-.44-.44V14.1c0-.24.2-.44.44-.44h55.12c.24 0 .44.2.44.44v11.8c0 .24-.2.44-.44.44"/><path fill="#FFF" d="M3.06 14.72h22.61v10.56H3.06z"/><path fill="#08BF5B" d="M9.28 21.87a.96.96 0 1 1 0-1.92.96.96 0 0 1 0 1.92m.01-2.9c-1.11 0-1.97.86-1.97 1.95 0 1.06.82 1.92 1.82 1.92.34 0 .55-.07.84-.28l.25-.18v.35h1.01V21c0-1.18-.82-2.03-1.95-2.03m4.46 2.9c-.53 0-.96-.43-.96-.97a.96.96 0 0 1 1.92 0c0 .54-.43.97-.96.97m.13-2.91c-.3 0-.55.08-.83.25l-.25.16V17.5h-1v3.28c0 1.18.81 2.05 1.94 2.05 1.1 0 1.97-.86 1.97-1.95-.01-1.04-.84-1.92-1.83-1.92m4.26 2.91c-.53 0-.96-.43-.96-.97a.96.96 0 0 1 1.92 0c0 .54-.43.97-.96.97m.13-2.91c-.3 0-.55.08-.83.25l-.25.16V17.5h-1v3.28c0 1.18.81 2.05 1.94 2.05 1.1 0 1.97-.86 1.97-1.95-.01-1.04-.84-1.92-1.83-1.92m2.37.12h1v3.66h-1zm3.64.9v-.96h-1V17.5h-.98v3.81c0 .61.11.92.44 1.16.28.2.51.26 1.13.26h.42v-.87h-.31c-.53 0-.69-.15-.69-.65v-1.23h.99ZM7 18.95c-1.14 0-1.94.86-1.94 2.06v1.73h.99v-1.61c0-.73.36-1.17.96-1.17h.06v-1.01H7"/><path fill="#FFF" d="M47.52 19.45c0 .96-.77 1.73-1.77 1.73h-.76v1.39c0 .09-.08.17-.17.17h-.77c-.09 0-.17-.08-.17-.17v-4.68c0-.09.08-.17.17-.17h1.69c1.01 0 1.78.77 1.78 1.73m-1.15.01c0-.35-.25-.61-.58-.61h-.76v1.23h.76c.34-.01.58-.27.58-.62m5.21-.22v3.41c0 .05-.04.09-.09.09h-.9a.09.09 0 0 1-.09-.09v-.24c-.24.27-.59.44-1.07.44-.94 0-1.72-.83-1.72-1.9 0-1.07.78-1.9 1.72-1.9.48 0 .83.17 1.07.44v-.25c0-.05.04-.09.09-.09h.9c.05 0 .09.04.09.09m-1.12 1.71c0-.51-.34-.83-.81-.83-.47 0-.81.32-.81.83s.34.83.81.83c.47 0 .81-.32.81-.83m4.4-1.71-.78 2-.83-2.01a.138.138 0 0 0-.13-.09h-.97c-.06 0-.11.06-.08.12l1.43 3.48-.53 1.32c-.02.06.02.12.08.12h.92c.06 0 .11-.04.14-.09l1.92-4.84c.02-.06-.02-.12-.08-.12H55c-.06.02-.12.06-.14.11m-23.91 3.33c0 .09-.08.17-.17.17h-3.03c-.04 0-.09-.02-.12-.05a.166.166 0 0 1-.05-.12v-4.68c0-.09.08-.17.17-.17h.81c.1 0 .17.08.17.17v3.71h2.05c.09 0 .17.08.17.17v.8Zm1.79-.01c0 .09-.08.17-.17.17h-.8c-.09 0-.17-.08-.17-.17v-4.68c0-.09.08-.17.17-.17h.8c.1 0 .17.08.17.17v4.68Zm5.15.01c0 .09-.08.17-.17.17h-.79c-.01 0-.03 0-.05-.01 0 0-.01 0-.02-.01l-.03-.02c-.02-.01-.03-.03-.04-.04l-2.14-2.99v2.89c0 .09-.08.17-.17.17h-.8c-.09 0-.17-.08-.17-.17v-4.68c0-.09.08-.17.17-.17h.83l.03.01.05.02s.01 0 .01.01l.01.01.01.01c.01.01.01.01.01.02l2.12 2.96v-2.86c0-.09.08-.17.17-.17h.8c.09 0 .17.08.17.17v4.68Zm4.13-3.88c0 .09-.08.17-.17.17h-2.06v.79h2.06c.09 0 .17.08.17.17v.8c0 .09-.08.17-.17.17h-2.06v.79h2.06c.09 0 .17.08.17.17v.8c0 .09-.08.17-.17.17h-3.03c-.04 0-.09-.02-.12-.05l-.01-.01a.166.166 0 0 1-.05-.12v-4.68c0-.04.02-.09.05-.12.03-.03.07-.05.12-.05h3.03c.09 0 .17.08.17.17v.83h.01Z"/></g></g></svg>