<svg width="60" height="40" viewBox="0 0 60 40" xmlns="http://www.w3.org/2000/svg"><g fill="none" fill-rule="evenodd"><path d="M0 0h60v40H0z"/><path d="M39.826 2H20.208c-4.515 0-8.19 3.676-8.19 8.192v19.616c0 4.517 3.675 8.192 8.19 8.192h19.618c4.517 0 8.19-3.675 8.19-8.192V10.192c0-4.516-3.673-8.192-8.19-8.192" fill="#FFF"/><path d="M39.887 3.398h-19.74c-3.711 0-6.733 3.02-6.733 6.732v19.74a6.74 6.74 0 0 0 6.734 6.732h19.74a6.74 6.74 0 0 0 6.731-6.732V10.13a6.741 6.741 0 0 0-6.732-6.732" fill="#295DAA"/><path d="M26.33 16.954h-1.673c-.491 0-1.127.347-1.31.81l.168-.887H21.47l-.908 5.093h2.047l.565-3.224h2.203l-.407 2.312c-.126.715.36.889.6.889h1.07l.698-3.961c-.058-.568-.44-1.032-1.008-1.032m-6.334-.077-.385 2.186 1.555-2.186zM22.423 8.9h-6.847l-.298 1.688h2.39l-.957 5.438h2.062l.962-5.438h2.39z" fill="#FFF"/><path d="m23.84 14.356.3-1.702h-1.835l-.298 1.702h1.833Zm-2.89 1.67c-.568 0-.95-.465-.85-1.033l.526-2.977c.099-.568.647-1.033 1.212-1.033h3.357c.567 0 .95.465.847 1.033l-.523 2.977c-.1.568-.647 1.033-1.213 1.033h-3.357Zm13.506-1.67.3-1.702h2.658l.295-1.67H34.29c-.567 0-1.116.464-1.215 1.032l-.525 2.977c-.1.568.283 1.032.852 1.032h3.323l.294-1.669h-2.563Zm-4.179 0h-2.25l.594-3.371h-1.793l-.704 4.008c-.1.568.281 1.032.849 1.032h1.747c.567 0 1.031-.337 1.398-.774 0 0 .2.584.487.714.29.133 1.164.102 1.164.102l.897-5.082h-1.794l-.595 3.371ZM43.2 11.01h-1.67c-.492 0-.967.347-1.151.808l.481-2.738h-1.885l-1.224 6.945h1.887l.567-3.223h2.044l-.406 2.311c-.126.714.36.889.597.889h.913l.698-3.961c.1-.568-.281-1.032-.85-1.032M36.48 23.665c-.762 0-1.277-.628-1.144-1.39l.707-4.002c.133-.765.87-1.39 1.635-1.39h4.27c.76 0 1.278.625 1.143 1.39l-.706 4.003c-.135.761-.87 1.389-1.633 1.389H36.48Zm3.978-1.871.539-3.04H37.97l-.538 3.04h3.026Zm-8.118 0h-3.03l.536-3.04h4.91l.325-1.871h-5.526c-.765 0-1.498.625-1.632 1.39l-.707 4.003c-.134.761.379 1.389 1.142 1.389h4.273c.764 0 1.5-.628 1.633-1.39l.432-2.456h-2.01l-.347 1.975Z" fill="#FFF"/><path fill="#FDDB00" d="m28.83 26.125-2.669 5.5h-1.693l-.2-3.329-1.617 3.33H20.95l-.326-5.5h1.206l.21 4.313 2.076-4.314h1.224l.21 4.314 2.076-4.314zm5.04 5.5h-1.176l1.166-5.5h1.177zm1.932 0h-1.176l1.167-5.5h1.176zm8.13 0h-.947c-.44 0-.746-.043-.918-.129-.172-.086-.258-.26-.258-.521 0-.147.022-.32.067-.517l.918-4.333h1.176l-.296 1.368h1.138l-.22.995h-1.119l-.335 1.569a2.142 2.142 0 0 0-.047.315c0 .109.036.179.11.21.073.032.221.048.444.048h.498l-.21.995ZM19.89 27.617c-.173-.089-.479-.133-.919-.133h-1.683c-.485 0-.853.09-1.105.272-.252.182-.423.483-.512.904l-.373 1.789a3.579 3.579 0 0 0-.057.291 1.575 1.575 0 0 0-.019.235c0 .127.019.23.057.31a.45.45 0 0 0 .192.197c.089.05.21.085.363.105.153.019.344.029.574.029h2.86l.21-.986h-2.41c-.223 0-.372-.017-.445-.052-.073-.035-.11-.107-.11-.216 0-.076.013-.178.038-.306l.001-.002h.497v.002h2.735l.297-1.396c.044-.204.067-.38.067-.526 0-.255-.086-.427-.258-.517m-1.034 1.445h-1.314v-.001h-.78a1.43 1.43 0 0 1 .09-.305.453.453 0 0 1 .135-.177.452.452 0 0 1 .21-.082c.086-.013.193-.019.32-.019h.938c.306 0 .459.096.459.287 0 .02-.02.118-.058.297m13.67-1.244a.446.446 0 0 0-.2-.196 1.097 1.097 0 0 0-.364-.1 4.527 4.527 0 0 0-.56-.029h-2.85l-.21.995h2.41c.223 0 .372.016.445.048.073.032.11.102.11.21 0 .05-.016.156-.048.315h-1.865c-.274 0-.502.015-.684.044a1.095 1.095 0 0 0-.454.167.837.837 0 0 0-.287.354c-.07.153-.134.354-.192.603l-.047.23a2.363 2.363 0 0 0-.068.516c0 .133.021.242.063.325a.443.443 0 0 0 .2.196c.093.048.214.081.364.1.15.02.336.03.56.03h3.041l.632-2.966c.044-.198.067-.37.067-.516a.732.732 0 0 0-.063-.326Zm-3.371 2.812c-.172 0-.259-.073-.259-.22 0-.09.036-.17.106-.244a.367.367 0 0 1 .277-.11h1.272v-.003h.496l-.123.577h-1.77Zm12.224-3.013c-.172-.089-.479-.133-.919-.133h-1.683c-.485 0-.853.09-1.105.272-.252.182-.422.483-.512.904l-.373 1.789a3.579 3.579 0 0 0-.057.291c-.013.086-.02.164-.02.235 0 .127.02.23.058.31a.45.45 0 0 0 .192.197c.089.05.21.085.363.105.153.019.344.029.574.029h2.86l.21-.986h-2.41c-.223 0-.372-.017-.445-.052-.073-.035-.11-.107-.11-.216 0-.076.013-.178.038-.306l.001-.002h.497v.002h2.735l.297-1.396c.044-.204.067-.38.067-.526 0-.255-.086-.427-.258-.517m-1.033 1.445h-1.24v-.001h-.855a1.49 1.49 0 0 1 .09-.305.452.452 0 0 1 .135-.177.452.452 0 0 1 .21-.082c.086-.013.193-.019.32-.019h.938c.306 0 .459.096.459.287 0 .02-.02.118-.057.297"/><path fill="#295DAA" d="M49.114 3.509h-.49v1.443h-.119V3.509h-.489v-.111h1.098zm1.648 1.443h-.117v-1.38l-.575.954h-.02l-.575-.955v1.38h-.118V3.399h.147l.554.92.555-.92h.15z"/></g></svg>